<svg width="11" height="12" viewBox="0 0 11 12" fill="none" xmlns="http://www.w3.org/2000/svg">
    <path d="M1.99999 12C1.63335 12 1.31956 11.8696 1.05867 11.6087C0.797782 11.3478 0.667114 11.0338 0.66667 10.6667V2C0.477782 2 0.319558 1.936 0.192002 1.808C0.0644463 1.68 0.000446294 1.52178 2.29427e-06 1.33333C-0.000441706 1.14489 0.0635583 0.986668 0.192002 0.858668C0.320446 0.730668 0.47867 0.666668 0.66667 0.666668H3.33335C3.33335 0.477776 3.39735 0.319556 3.52535 0.192C3.65335 0.064444 3.81155 0.000444 3.99999 0H6.66667C6.85555 0 7.01399 0.064 7.14199 0.192C7.26999 0.32 7.33379 0.478224 7.33335 0.666668H9.99999C10.1889 0.666668 10.3474 0.730668 10.4754 0.858668C10.6034 0.986668 10.6671 1.14489 10.6667 1.33333C10.6662 1.52178 10.6022 1.68022 10.4747 1.80867C10.3471 1.93711 10.1889 2.00088 9.99999 2V10.6667C9.99999 11.0333 9.86955 11.3473 9.60867 11.6087C9.34779 11.87 9.03379 12.0004 8.66667 12H1.99999ZM8.66667 2H1.99999V10.6667H8.66667V2ZM3.99999 9.33332C4.18891 9.33332 4.34735 9.26932 4.47535 9.14132C4.60335 9.01332 4.66711 8.85512 4.66667 8.66668V4C4.66667 3.81112 4.60267 3.65288 4.47467 3.52532C4.34667 3.39776 4.18843 3.33376 3.99999 3.33332C3.81155 3.33288 3.65335 3.39688 3.52535 3.52532C3.39735 3.65376 3.33335 3.812 3.33335 4V8.66668C3.33335 8.85556 3.39735 9.014 3.52535 9.142C3.65335 9.27 3.81155 9.33376 3.99999 9.33332ZM6.66667 9.33332C6.85555 9.33332 7.01399 9.26932 7.14199 9.14132C7.26999 9.01332 7.33379 8.85512 7.33335 8.66668V4C7.33335 3.81112 7.26935 3.65288 7.14135 3.52532C7.01335 3.39776 6.85511 3.33376 6.66667 3.33332C6.47823 3.33288 6.31999 3.39688 6.19199 3.52532C6.06399 3.65376 5.99999 3.812 5.99999 4V8.66668C5.99999 8.85556 6.06399 9.014 6.19199 9.142C6.31999 9.27 6.47823 9.33376 6.66667 9.33332Z" fill="black"/>
</svg>
